<svg width="1016" height="191" viewBox="0 0 1016 191" fill="none" xmlns="http://www.w3.org/2000/svg">
<path d="M889.948 130.227L897.392 110.383H974.314L981.758 130.227H889.948ZM935.357 47.874L906.077 116.832L904.092 121.297L878.286 182.318H854.713L935.357 0L1016 182.318H992.428L967.118 122.786L965.133 117.825L935.357 47.874Z" fill="#333333"/>
<path d="M805.051 8.68018H826.142V182.317H805.051V8.68018Z" fill="#333333"/>
<path d="M628.966 8.68018H650.057V182.317H628.966V8.68018ZM681.074 182.317H640.628V161.232H681.074C690.834 161.232 699.767 159.744 707.873 156.767C715.978 153.625 722.926 149.243 728.716 143.62C734.506 137.833 738.972 130.887 742.115 122.784C745.258 114.681 746.83 105.586 746.83 95.4984C746.83 85.4109 745.258 76.3157 742.115 68.2127C738.972 60.1096 734.506 53.2468 728.716 47.6243C722.926 41.8365 715.978 37.4542 707.873 34.4776C699.767 31.3356 690.834 29.7646 681.074 29.7646H640.628V8.68018H681.074C697.947 8.68018 712.918 12.3183 725.986 19.5945C739.055 26.8707 749.311 37.0408 756.755 50.1049C764.199 63.0036 767.921 78.1347 767.921 95.4984C767.921 112.862 764.199 128.076 756.755 141.14C749.311 154.039 739.055 164.126 725.986 171.402C712.918 178.678 697.947 182.317 681.074 182.317Z" fill="#333333"/>
<path d="M513.689 96.7386H537.262L599.295 182.317H573.241L513.689 96.7386ZM482.672 8.68018H503.763V182.317H482.672V8.68018ZM494.334 27.2841V8.68018H529.817C541.066 8.68018 551.074 10.83 559.842 15.1295C568.775 19.2637 575.805 25.217 580.933 32.9893C586.227 40.7616 588.873 50.0222 588.873 60.7711C588.873 71.3546 586.227 80.6152 580.933 88.5529C575.805 96.3252 568.775 102.361 559.842 106.661C551.074 110.795 541.066 112.862 529.817 112.862H494.334V94.2581H529.817C537.262 94.2581 543.796 92.9352 549.42 90.2893C555.21 87.6434 559.676 83.8399 562.819 78.8789C566.128 73.9178 567.782 67.8819 567.782 60.7711C567.782 53.6603 566.128 47.6243 562.819 42.6633C559.676 37.7023 555.21 33.8988 549.42 31.2529C543.796 28.607 537.262 27.2841 529.817 27.2841H494.334Z" fill="#333333"/>
<path d="M350.464 182.317V162.472H438.056V182.317H350.464ZM350.464 28.5243V8.68018H438.056V28.5243H350.464ZM350.464 97.9789V78.1347H433.093V97.9789H350.464ZM338.802 8.68018H359.893V182.317H338.802V8.68018Z" fill="#333333"/>
<path d="M270.535 8.68018H291.627V182.317H270.535V8.68018Z" fill="#333333"/>
<path d="M171.957 136.429L217.118 8.68181H240.69L172.454 191L120.345 56.0597L68.237 191L0 8.68181H23.5728L69.7258 136.429L120.345 0L171.957 136.429Z" fill="#333333"/>
</svg>
