<svg width="110" height="19" viewBox="0 0 110 19" fill="none" xmlns="http://www.w3.org/2000/svg">
<path d="M105.493 13.3274H98.7476L97.1427 18.1977H95.0864L100.954 0.624512H103.412L109.33 18.1977H107.148L105.493 13.3274ZM99.3996 11.5199H104.917L102.334 3.2605H102.033L99.3996 11.5199Z" fill="#FCFCF4"/>
<path d="M80.4014 0.624512H92.4382V2.48225H87.4479V16.34H92.4382V18.1977H80.4014V16.34H85.3666V2.48225H80.4014V0.624512Z" fill="#FCFCF4"/>
<path d="M65.1143 0.624664C65.7495 0.540982 66.4099 0.490773 67.0953 0.474037C67.7975 0.440565 68.391 0.423828 68.8758 0.423828C70.3971 0.423828 71.6676 0.641401 72.6874 1.07655C73.7239 1.51169 74.5515 2.12257 75.17 2.90918C75.8053 3.67906 76.2567 4.60793 76.5242 5.69579C76.8084 6.78366 76.9505 7.98031 76.9505 9.28575C76.9505 10.474 76.8251 11.6205 76.5743 12.7251C76.3236 13.8129 75.8889 14.7837 75.2703 15.6372C74.6518 16.474 73.8159 17.1519 72.7627 17.6707C71.7262 18.1728 70.4222 18.4238 68.8507 18.4238C68.6334 18.4238 68.3492 18.4155 67.9981 18.3987C67.647 18.3987 67.2876 18.382 66.9198 18.3485C66.552 18.3318 66.2009 18.315 65.8666 18.2983C65.5322 18.2816 65.2814 18.2565 65.1143 18.223V0.624664ZM68.9761 2.28157C68.742 2.28157 68.4411 2.28994 68.0733 2.30667C67.7222 2.32341 67.4297 2.35688 67.1956 2.40709V16.4657C67.2792 16.4824 67.3962 16.4991 67.5467 16.5159C67.7139 16.5159 67.8811 16.5242 68.0482 16.541C68.2154 16.541 68.3742 16.5494 68.5247 16.5661C68.6919 16.5661 68.8256 16.5661 68.9259 16.5661C70.1463 16.5661 71.1327 16.3653 71.885 15.9636C72.654 15.5619 73.2475 15.0263 73.6654 14.3569C74.0834 13.6707 74.3676 12.8924 74.518 12.0222C74.6685 11.1351 74.7437 10.223 74.7437 9.28575C74.7437 8.46567 74.6769 7.64558 74.5431 6.8255C74.4094 5.98868 74.1335 5.23554 73.7156 4.56609C73.3144 3.89663 72.7292 3.3527 71.9602 2.93429C71.2079 2.49914 70.2132 2.28157 68.9761 2.28157Z" fill="#FCFCF4"/>
<path d="M49.8271 0.800397C50.4624 0.683242 51.1896 0.591191 52.0088 0.524245C52.8447 0.4573 53.6054 0.423828 54.2908 0.423828C55.0598 0.423828 55.7871 0.50751 56.4725 0.674874C57.1746 0.842238 57.7848 1.11839 58.3031 1.50333C58.8381 1.88826 59.2644 2.39036 59.582 3.0096C59.8996 3.62885 60.0585 4.38199 60.0585 5.26902C60.0585 5.95521 59.9414 6.56609 59.7074 7.10165C59.4901 7.62048 59.2142 8.07236 58.8799 8.4573C58.5622 8.8255 58.2279 9.12676 57.8768 9.36107C57.5257 9.59538 57.2248 9.76274 56.974 9.86316L61.6132 18.1979H59.1808L55.0431 10.4657H51.9085V18.1979H49.8271V0.800397ZM54.341 2.23136C54.1236 2.23136 53.8979 2.23136 53.6639 2.23136C53.4298 2.23136 53.2041 2.23973 52.9868 2.25646C52.7695 2.2732 52.5605 2.28994 52.3599 2.30667C52.176 2.32341 52.0255 2.34851 51.9085 2.38199V8.85897H53.8645C55.018 8.85897 55.9709 8.57446 56.7233 8.00542C57.4756 7.43638 57.8517 6.54935 57.8517 5.34433C57.8517 4.44056 57.5424 3.69579 56.9239 3.11002C56.3053 2.52425 55.4443 2.23136 54.341 2.23136Z" fill="#FCFCF4"/>
<path d="M34.2139 0.624512H44.5204V2.48225H36.2952V8.23121H43.8935V10.0889H36.2952V16.34H44.6458V18.1977H34.2139V0.624512Z" fill="#FCFCF4"/>
<path d="M17.2471 0.624512H29.2839V2.48225H24.2936V16.34H29.2839V18.1977H17.2471V16.34H22.2123V2.48225H17.2471V0.624512Z" fill="#FCFCF4"/>
<path d="M4.2922 13.1517L4.41759 14.7835H4.59313L4.9442 13.0011L6.79988 6.14752H8.45494L10.1852 12.9509L10.6366 14.8086H10.762L10.9125 13.1015L12.7681 0.624512H14.6238L11.9155 18.1977H9.83416L7.80295 11.068L7.55218 9.36091H7.47695L7.20111 11.0931L5.16989 18.1977H3.06344L0.330078 0.624512H2.31114L4.2922 13.1517Z" fill="#FCFCF4"/>
</svg>
